# xmcd
# Copyright (c) 1998 CDDB Inc.
#
# Track frame offsets:
#	150
#	16469
#	31257
#	49298
#	63152
#	86168
#	103254
#	120626
#	146157
#	165851
#	187120
#	205325
#	218403
#	234149
#	253206
#	268643
#	285411
#	311184
#
# Disc length: 4398 seconds
#
# Revision: 0
# Processed by: cddbd v1.4PL0 Copyright (c) Steve Scherf et al.
# Submitted via: audiograbber 1.70
#
DISCID=05112c12
DTITLE=1 - Читса союз
DYEAR=1900
DGENRE=
TTITLE0=Слава Бобков - За запретной полосой
TTITLE1=Слава Исетский мл. - Марго
TTITLE2=Александр Новиков - Красивоглазая
TTITLE3=Ира Ежова - Лунная соната
TTITLE4=Виктор Петлюра - Здравствуй,  мама
TTITLE5=Воадимир Асмолов - Грусьная нескладушка
TTITLE6=Сергей Дикий - Белая песня
TTITLE7=Геннадий Жаров - Дамы пиковой блюз
TTITLE8=Григорой Лепс - Расскажи
TTITLE9=Анатолий Полотно - Постоялец катрана
TTITLE10=Таня Тишинская - Золотая ручка
TTITLE11=Иван Кучин - Хиганская душа
TTITLE12=Слава Исетский мл. - От бухты Цемесской
TTITLE13=Михаил Круг - Ярославская
TTITLE14=Танечка Треф - Слеза упала
TTITLE15=Михаил Шуфутинский - Цыганка
TTITLE16=Гарик Кричевский - Автобан
TTITLE17=Катя Огонёк - Любовь
EXTD=
EXTT0=
EXTT1=
EXTT2=
EXTT3=
EXTT4=
EXTT5=
EXTT6=
EXTT7=
EXTT8=
EXTT9=
EXTT10=
EXTT11=
EXTT12=
EXTT13=
EXTT14=
EXTT15=
EXTT16=
EXTT17=
PLAYORDER=
